<svg xmlns="http://www.w3.org/2000/svg" width="510" height="510" viewBox="0 0 510 510">
  <defs>
    <style>
      .a {
        fill: none;
      }

      .b {
        fill: #4d5cb1;
      }

      .c {
        fill: #d7dcff;
      }

      .d {
        fill: #a3a7ce;
      }
    </style>
  </defs>
  <title>icon_design</title>
  <g>
    <rect class="a" width="510" height="510"/>
    <path class="b" d="M447.67,294.38V217.62l-29.89-8.69a167.57,167.57,0,0,0-14.11-34l15-27.28L364.39,93.33l-27.28,15a167.57,167.57,0,0,0-34-14.11l-8.69-29.89H217.62l-8.69,29.89a167,167,0,0,0-34,14.11l-27.28-15L93.33,147.61l15,27.28a167.57,167.57,0,0,0-14.11,34l-29.89,8.69v76.76l29.89,8.69a167,167,0,0,0,14.11,34l-15,27.28,54.28,54.27,27.28-15a167.57,167.57,0,0,0,34,14.11l8.69,29.88h76.76l8.69-29.89a167,167,0,0,0,34-14.11l27.28,15,54.28-54.28-15-27.28a167.57,167.57,0,0,0,14.11-34ZM256,360.82A104.82,104.82,0,1,1,360.82,256,104.94,104.94,0,0,1,256,360.82Z"/>
    <path class="c" d="M390.77,256c0-74.31-60.46-134.77-134.77-134.77S121.23,181.69,121.23,256c0,.07,0,.13,0,.2s0,.13,0,.19c0,74.31,60.46,134.77,134.77,134.77S390.77,330.7,390.77,256.39c0-.06,0-.13,0-.19S390.77,256.07,390.77,256ZM256,360.82A104.82,104.82,0,1,1,360.82,256,104.94,104.94,0,0,1,256,360.82Z"/>
    <polygon class="b" points="256 240.84 281.67 222.88 256 177.95 230.33 222.88 239.66 235.13 233.54 256.57 248.19 246.31 256 256.57 256 240.84"/>
    <polygon class="c" points="256 297.28 312.15 276.22 281.67 222.88 256 222.88 230.33 222.88 199.85 276.22 228.66 293.51 222.31 309.91 243.04 302.14 256 309.91 256 297.28"/>
    <path class="d" d="M256,276.22H199.85V378.49a134.51,134.51,0,0,0,112.3,0V276.22Z"/>
  </g>
</svg>
