<svg xmlns="http://www.w3.org/2000/svg" width="510" height="510" viewBox="0 0 510 510">
  <defs>
    <style>
      .a {
        fill: none;
      }

      .b {
        fill: #4d5cb1;
      }
    </style>
  </defs>
  <title>icon_facebook</title>
  <g>
    <path class="a" d="M0,0V510H510V0Z"/>
    <path class="b" d="M363,109.47H149A39.49,39.49,0,0,0,109.47,149V363A39.49,39.49,0,0,0,149,402.53H254.54l.18-104.72H227.51a6.41,6.41,0,0,1-6.41-6.4L221,257.65a6.43,6.43,0,0,1,6.42-6.44h27.17V218.59c0-37.85,23.11-58.46,56.88-58.46h27.71a6.42,6.42,0,0,1,6.42,6.42V195a6.41,6.41,0,0,1-6.42,6.42h-17c-18.37,0-21.92,8.73-21.92,21.54v28.23h40.35a6.41,6.41,0,0,1,6.37,7.18l-4,33.76a6.41,6.41,0,0,1-6.37,5.66H300.4l-.18,104.73H363a39.49,39.49,0,0,0,39.49-39.49V149A39.49,39.49,0,0,0,363,109.47Z"/>
  </g>
</svg>
