<svg xmlns="http://www.w3.org/2000/svg" width="510" height="510" viewBox="0 0 510 510">
  <defs>
    <style>
      .a {
        fill: none;
      }

      .b {
        fill: #4d5cb1;
      }
    </style>
  </defs>
  <title>icon_twitter</title>
  <g>
    <path class="a" d="M0,0V510H510V0Z"/>
    <path class="b" d="M397.87,162.47a115.8,115.8,0,0,1-20.21,6.82A63.09,63.09,0,0,0,394.3,142.8a3.31,3.31,0,0,0-4.84-3.85,116.53,116.53,0,0,1-30.89,12.77,7.85,7.85,0,0,1-1.93.24,8.2,8.2,0,0,1-5.41-2.07,63.2,63.2,0,0,0-41.81-15.78,67.52,67.52,0,0,0-20,3.09,61.23,61.23,0,0,0-41.26,44.11,67.29,67.29,0,0,0-1.49,23.26,2.29,2.29,0,0,1-.57,1.77,2.33,2.33,0,0,1-1.75.79h-.22a165.64,165.64,0,0,1-113.87-60.83,3.31,3.31,0,0,0-5.42.42,63.26,63.26,0,0,0,10.29,76.8,56.58,56.58,0,0,1-14.42-5.58,3.31,3.31,0,0,0-4.91,2.85,63.28,63.28,0,0,0,36.91,58.29h-1.35a56.41,56.41,0,0,1-10.65-1,3.31,3.31,0,0,0-3.76,4.26,63.29,63.29,0,0,0,50,43.07,116.64,116.64,0,0,1-65.31,19.83h-7.3a4.83,4.83,0,0,0-4.73,3.65,5,5,0,0,0,2.39,5.53,173.38,173.38,0,0,0,87.14,23.5c26.79,0,51.84-5.31,74.47-15.8a164.38,164.38,0,0,0,54.48-40.83,178.79,178.79,0,0,0,33.37-55.87,176.52,176.52,0,0,0,11.34-61.16v-1a10.75,10.75,0,0,1,4-8.37A125.08,125.08,0,0,0,402,167.33a3.31,3.31,0,0,0-4.09-4.86Z"/>
  </g>
</svg>
