<svg xmlns="http://www.w3.org/2000/svg" width="510" height="510" viewBox="0 0 510 510">
  <defs>
    <style>
      .a {
        fill: none;
      }

      .b {
        fill: #4d5cb1;
      }

      .c {
        fill: #fff;
      }

      .d {
        fill: #a3a7ce;
      }

      .e {
        fill: #d7dcff;
      }
    </style>
  </defs>
  <title>icon_sp</title>
  <g>
    <rect class="a" width="510" height="510"/>
    <g>
      <g>
        <path class="b" d="M363.48,409.45a18.34,18.34,0,0,1-18.33,18.35h-180a18.34,18.34,0,0,1-18.34-18.35v-318a18.35,18.35,0,0,1,18.34-18.35h180a18.35,18.35,0,0,1,18.33,18.35Z"/>
        <rect class="c" x="173.01" y="99.34" width="164.26" height="269.05"/>
        <rect class="d" x="222.02" y="83.62" width="65.95" height="7.43"/>
        <path class="d" d="M273.05,396.09A17.9,17.9,0,0,1,255.15,414h0a17.91,17.91,0,0,1-17.91-17.91h0a17.91,17.91,0,0,1,17.91-17.91h0a17.9,17.9,0,0,1,17.9,17.91Z"/>
      </g>
      <path class="e" d="M337.27,107.75V99.34H173V328.55C173,224.28,242.26,136.2,337.27,107.75Z"/>
      <path class="d" d="M118.54,180.52v-.28c-22.38-.67-26.29-4.58-27-27h-.28c-.67,22.38-4.58,26.29-27,27v.28c22.38.67,26.29,4.59,27,27h.28C92.25,185.11,96.16,181.19,118.54,180.52Z"/>
      <path class="d" d="M192.93,122.84v-.59c-47.05-1.42-55.27-9.64-56.69-56.69h-.59C134.24,112.61,126,120.83,79,122.25v.59c47.05,1.41,55.28,9.64,56.69,56.69h.59C137.66,132.48,145.88,124.25,192.93,122.84Z"/>
      <path class="d" d="M379.66,371.58v-.22c-17.68-.54-20.78-3.63-21.31-21.32h-.22c-.53,17.69-3.63,20.78-21.31,21.32v.22c17.68.53,20.78,3.62,21.31,21.31h.22C358.88,375.2,362,372.11,379.66,371.58Z"/>
      <path class="d" d="M440.5,328.16v-.46c-37.19-1.12-43.69-7.62-44.81-44.81h-.47c-1.11,37.19-7.62,43.69-44.81,44.81v.46c37.19,1.12,43.7,7.63,44.81,44.82h.47C396.81,335.79,403.31,329.28,440.5,328.16Z"/>
    </g>
  </g>
</svg>
