<svg xmlns="http://www.w3.org/2000/svg" width="510" height="510" viewBox="0 0 510 510">
  <defs>
    <style>
      .a {
        fill: none;
      }

      .b {
        fill: #d7dcff;
      }

      .c {
        fill: #4d5cb1;
      }

      .d {
        fill: #fff;
      }
    </style>
  </defs>
  <title>icon_retention</title>
  <g>
    <rect class="a" width="510" height="510"/>
    <path class="b" d="M381.13,369.78H130.87a17.1,17.1,0,0,1-17.09-17.1V159.32a17.1,17.1,0,0,1,17.09-17.1H381.13a17.1,17.1,0,0,1,17.09,17.1V352.68A17.1,17.1,0,0,1,381.13,369.78Z"/>
    <path class="c" d="M398.22,159.32a17.1,17.1,0,0,0-17.09-17.1H130.87a17.1,17.1,0,0,0-17.09,17.1v7.9H398.22Z"/>
    <path class="c" d="M113.78,350.81v1.87a17.1,17.1,0,0,0,17.09,17.1H381.13a17.1,17.1,0,0,0,17.09-17.1v-1.87Z"/>
    <g>
      <circle class="d" cx="136.83" cy="156.44" r="6.03"/>
      <circle class="d" cx="161.18" cy="156.44" r="6.03"/>
      <circle class="d" cx="185.53" cy="156.44" r="6.03"/>
    </g>
    <path class="c" d="M356,263.66a8.61,8.61,0,0,0-7.83-9.34l-.76,0a8.6,8.6,0,0,0-8.58,7.86l-2,23.4L262.1,210.91a8.41,8.41,0,0,0-6.14-2.52,8.62,8.62,0,0,0-6.11,2.58l-37.65,38.4L158,206a8.62,8.62,0,0,0-10.77,13.46l60.34,48.27a8.62,8.62,0,0,0,11.54-.7l37-37.74,67.66,67.65-23.87-2.09a8.62,8.62,0,1,0-1.5,17.18l44.38,3.88a8.62,8.62,0,0,0,9.34-7.83Z"/>
  </g>
</svg>
