<svg xmlns="http://www.w3.org/2000/svg" width="510" height="510" viewBox="0 0 510 510">
  <defs>
    <style>
      .a {
        fill: none;
      }

      .b {
        fill: #a3a7ce;
      }

      .c {
        fill: #4d5cb1;
      }

      .d {
        fill: #fff;
      }
    </style>
  </defs>
  <title>icon_sns_analytics</title>
  <g>
    <g>
      <g>
        <rect class="a" width="510" height="510"/>
        <rect class="b" x="155.44" y="232.67" width="28.44" height="170.67"/>
        <rect class="b" x="212.33" y="289.56" width="28.44" height="113.78"/>
      </g>
      <g>
        <rect class="b" x="326.11" y="346.44" width="28.44" height="56.89"/>
        <rect class="b" x="269.22" y="261.11" width="28.44" height="142.22"/>
      </g>
    </g>
    <path class="c" d="M189.82,202.46c8,11.08,21.73,21.61,45.54,26.54,0,0-11.09-13.79-12.24-31.19,30.78-9.43,52.49-32.09,52.49-58.57,0-34.93-37.76-63.24-84.33-63.24S107,104.31,107,139.24C107,173.81,143.92,201.87,189.82,202.46Z"/>
    <path class="c" d="M368,274.27c-7.38,10.27-20.16,20-42.24,24.61,0,0,10.28-12.79,11.35-28.93-28.55-8.74-48.68-29.76-48.68-54.31,0-32.4,35-58.66,78.21-58.66s78.21,26.26,78.21,58.66C444.88,247.69,410.59,273.72,368,274.27Z"/>
    <path class="d" d="M401.12,194.29a25.66,25.66,0,0,1-4.6,1.55,14.34,14.34,0,0,0,3.79-6h0a.75.75,0,0,0-1.1-.88h0a26.58,26.58,0,0,1-7,2.91,1.61,1.61,0,0,1-.44,0,1.82,1.82,0,0,1-1.23-.47,14.42,14.42,0,0,0-9.52-3.59,15.32,15.32,0,0,0-4.56.71,13.92,13.92,0,0,0-9.39,10,15.38,15.38,0,0,0-.35,5.3.48.48,0,0,1-.13.4.53.53,0,0,1-.39.18h-.05a37.7,37.7,0,0,1-25.93-13.86h0a.76.76,0,0,0-1.24.1h0a14.4,14.4,0,0,0,2.34,17.49,13,13,0,0,1-3.28-1.27h0a.75.75,0,0,0-1.12.65h0a14.4,14.4,0,0,0,8.41,13.27H345a13.33,13.33,0,0,1-2.43-.23h0a.75.75,0,0,0-.85,1h0a14.41,14.41,0,0,0,11.39,9.81,26.63,26.63,0,0,1-14.87,4.51h-1.67a1.1,1.1,0,0,0-1.07.83A1.13,1.13,0,0,0,336,238a39.52,39.52,0,0,0,19.84,5.35,40.13,40.13,0,0,0,17-3.59,37.45,37.45,0,0,0,12.41-9.3,40.88,40.88,0,0,0,7.6-12.73,40.12,40.12,0,0,0,2.58-13.92v-.22a2.45,2.45,0,0,1,.92-1.91,28.44,28.44,0,0,0,5.72-6.27h0a.75.75,0,0,0-.93-1.11Z"/>
    <path class="d" d="M181.88,118.16v10h-7.3v12.2h7.3v36.24h15V140.33H207s.94-5.85,1.4-12.24H197v-8.34a3.54,3.54,0,0,1,3.25-2.92h8.18v-12.7H197.26C181.51,104.13,181.88,116.34,181.88,118.16Z"/>
  </g>
</svg>
