<svg xmlns="http://www.w3.org/2000/svg" width="145.04mm" height="20.84mm" viewBox="0 0 411.15 59.08">
  <defs>
    <style>
      .a {
        fill: #000;
      }
    </style>
  </defs>
  <title>アセット 2</title>
  <g>
    <path class="a" d="M27.64,9.51A29.63,29.63,0,0,0,5.93,0a29.15,29.15,0,0,0-3,.16,17.07,17.07,0,0,1-1.3,2A7.36,7.36,0,0,0,0,5c.09.44.65,1.87,1,2.82l.5,1.28a21.35,21.35,0,0,1,4.41-.48,20.88,20.88,0,0,1,0,41.76A20.67,20.67,0,0,1,.8,49.75c-.25.71-.6,1.72-.64,1.87a8,8,0,0,0,.29,2.05,11.68,11.68,0,0,1,.34,2.47,12.45,12.45,0,0,1-.23,2.44,29.49,29.49,0,0,0,5.37.5,30,30,0,0,0,6.1-.64A29.63,29.63,0,0,0,35.37,32,29.3,29.3,0,0,0,27.64,9.51Z"/>
    <path class="a" d="M73.68,59.08a29.54,29.54,0,1,1,29.54-29.54A29.57,29.57,0,0,1,73.68,59.08Zm0-50.42A20.88,20.88,0,1,0,94.55,29.54,20.9,20.9,0,0,0,73.68,8.66Z"/>
    <path class="a" d="M291.36,59.08V29.83c0-13-6.84-21.17-17.67-21.17S256,16.81,256,29.83V59.08h-8.66V29.83C247.36,13.46,259.17.08,273.7,0,288.21.08,300,13.46,300,29.83V59.08Z"/>
    <path class="a" d="M317.35,0V29.25c0,13,6.84,21.17,17.67,21.17s17.67-8.15,17.67-21.17V0h8.66V29.25c0,16.37-11.82,29.76-26.34,29.83s-26.33-13.46-26.33-29.83V0Z"/>
    <polygon class="a" points="386.25 59.08 386.25 8.66 370.01 8.66 370.01 0 411.14 0 411.14 8.66 394.91 8.66 394.91 59.08 386.25 59.08"/>
    <path class="a" d="M141.42,59.08A29.54,29.54,0,1,1,171,29.54,29.57,29.57,0,0,1,141.42,59.08Zm0-50.42a20.88,20.88,0,1,0,20.87,20.88A20.91,20.91,0,0,0,141.42,8.66Z"/>
    <path class="a" d="M209.16,59.08A29.54,29.54,0,1,1,238.7,29.54,29.57,29.57,0,0,1,209.16,59.08Zm0-50.42A20.88,20.88,0,1,0,230,29.54,20.91,20.91,0,0,0,209.16,8.66Z"/>
  </g>
</svg>
