<svg xmlns="http://www.w3.org/2000/svg" width="510" height="510" viewBox="0 0 510 510">
  <defs>
    <style>
      .a {
        fill: none;
      }

      .b {
        fill: #4d5cb1;
      }
    </style>
  </defs>
  <title>icon_youtube</title>
  <g>
    <path class="a" d="M0,0V510H510V0Z"/>
    <path class="b" d="M340.65,152.33H169.35a60.85,60.85,0,0,0-60.85,60.85v85.64a60.85,60.85,0,0,0,60.85,60.85h171.3a60.85,60.85,0,0,0,60.85-60.85V213.19a60.85,60.85,0,0,0-60.85-60.86ZM299.49,260.17l-80.12,38.21a3.22,3.22,0,0,1-4.6-2.9V216.66a3.22,3.22,0,0,1,4.67-2.87l80.12,40.6a3.22,3.22,0,0,1-.07,5.78Z"/>
  </g>
</svg>
