<svg xmlns="http://www.w3.org/2000/svg" width="510" height="510" viewBox="0 0 510 510">
  <defs>
    <style>
      .a {
        fill: none;
      }

      .b {
        fill: #4d5cb1;
      }

      .c {
        fill: #a3a7ce;
      }
    </style>
  </defs>
  <title>icon_cta</title>
  <g>
    <rect class="a" width="510" height="510"/>
    <path class="b" d="M357.21,223.83H154.79a38.11,38.11,0,0,1-38-38v-68.9a38.11,38.11,0,0,1,38-38H357.21a38.11,38.11,0,0,1,38,38v68.9A38.11,38.11,0,0,1,357.21,223.83Z"/>
    <path class="c" d="M357.61,267h0a28.85,28.85,0,0,0-25.23,15,28.88,28.88,0,0,0-28.06-22.47h0a28.83,28.83,0,0,0-25.23,15A28.87,28.87,0,0,0,251,252h0a28.81,28.81,0,0,0-24.52,13.78V162.71a28.86,28.86,0,0,0-28.77-28.77h0A28.86,28.86,0,0,0,169,162.71v166.8l-7.08-5.31a30.19,30.19,0,0,0-42.14,6h0a30.19,30.19,0,0,0,6,42.14s63.88,54.76,63.94,54.8a75.86,75.86,0,0,0,46.49,15.91H310a76.6,76.6,0,0,0,76.38-76.38v-71A28.85,28.85,0,0,0,357.61,267Z"/>
  </g>
</svg>
