<svg xmlns="http://www.w3.org/2000/svg" width="510" height="510" viewBox="0 0 510 510">
  <defs>
    <style>
      .a {
        fill: none;
      }

      .b {
        fill: #d7dcff;
      }

      .c {
        fill: #4d5cb1;
      }

      .d {
        fill: #a3a7ce;
      }

      .e {
        fill: #9297b7;
      }

      .f {
        fill: #fff;
      }
    </style>
  </defs>
  <title>icon_seo</title>
  <g>
    <rect class="a" width="510" height="510"/>
    <g>
      <path class="b" d="M358.81,324.37H144.61A14.63,14.63,0,0,1,130,309.74V144.24a14.63,14.63,0,0,1,14.63-14.64h214.2a14.63,14.63,0,0,1,14.63,14.64v165.5A14.63,14.63,0,0,1,358.81,324.37Z"/>
      <path class="c" d="M373.44,144.24a14.63,14.63,0,0,0-14.63-14.63H144.61A14.63,14.63,0,0,0,130,144.24V151H373.44v-6.76Z"/>
      <path class="c" d="M130,308.14v1.6a14.63,14.63,0,0,0,14.63,14.63h214.2a14.63,14.63,0,0,0,14.63-14.63v-1.6Z"/>
      <g>
        <circle class="d" cx="149.72" cy="141.77" r="5.16"/>
        <circle class="d" cx="170.56" cy="141.77" r="5.16"/>
        <circle class="d" cx="191.4" cy="141.77" r="5.16"/>
      </g>
      <path class="e" d="M379.11,409.93h0a20.53,20.53,0,0,1-29,0l-72.54-72.55,29-29,72.54,72.55A20.53,20.53,0,0,1,379.11,409.93Z"/>
      <circle class="d" cx="243.24" cy="274.07" r="82.08"/>
      <circle class="f" cx="243.24" cy="274.07" r="61.56"/>
      <rect class="d" x="312.42" y="328.94" width="41.04" height="69.64" transform="translate(-159.7 341.97) rotate(-45)"/>
    </g>
  </g>
</svg>
