<svg xmlns="http://www.w3.org/2000/svg" width="510" height="510" viewBox="0 0 510 510">
  <defs>
    <style>
      .a {
        fill: #4d5cb1;
      }

      .b {
        fill: #d7dcff;
      }

      .c {
        fill: none;
      }

      .d {
        fill: #fff;
      }
    </style>
  </defs>
  <title>icon_domain</title>
  <g>
    <path class="a" d="M109.26,344.1v1.84a16.88,16.88,0,0,0,16.88,16.89H373.28a16.89,16.89,0,0,0,16.89-16.89V344.1Z"/>
    <path class="b" d="M373.28,362.83H126.14a16.88,16.88,0,0,1-16.88-16.89V155a16.87,16.87,0,0,1,16.88-16.88H373.28A16.88,16.88,0,0,1,390.17,155v191A16.9,16.9,0,0,1,373.28,362.83Z"/>
    <path class="a" d="M109.26,344.1v1.84a16.88,16.88,0,0,0,16.88,16.89H373.28a16.89,16.89,0,0,0,16.89-16.89V344.1Z"/>
    <g>
      <rect class="c" width="510" height="510"/>
      <path class="a" d="M390.16,155a16.88,16.88,0,0,0-16.88-16.88H126.14A16.89,16.89,0,0,0,109.25,155v7.81H390.16V155Z"/>
      <g>
        <circle class="d" cx="132.03" cy="152.14" r="5.96"/>
        <circle class="d" cx="156.08" cy="152.14" r="5.96"/>
        <circle class="d" cx="180.13" cy="152.14" r="5.96"/>
      </g>
      <path class="a" d="M390.16,155a16.88,16.88,0,0,0-16.88-16.88H126.14A16.89,16.89,0,0,0,109.25,155v7.81H390.16V155Z"/>
      <g>
        <circle class="d" cx="132.03" cy="152.14" r="5.96"/>
        <circle class="d" cx="156.08" cy="152.14" r="5.96"/>
        <circle class="d" cx="180.13" cy="152.14" r="5.96"/>
      </g>
      <g>
        <path class="a" d="M152.17,252.63v18.7h-7.28V223.21h7.28v19.87a11.57,11.57,0,0,1,4.7-5,13.43,13.43,0,0,1,6.8-1.82,12.83,12.83,0,0,1,9.44,3.57q3.62,3.57,3.61,10.33v21.17h-7.28v-19q0-9.56-7.92-9.55a9.5,9.5,0,0,0-6.56,2.5C153.1,247,152.17,249.42,152.17,252.63Z"/>
        <path class="a" d="M195.81,242.62v17.54a5.68,5.68,0,0,0,1.3,3.93,4.64,4.64,0,0,0,3.64,1.46,6.21,6.21,0,0,0,4.48-2.27l3,5.13a12.45,12.45,0,0,1-8.48,3.44,10.91,10.91,0,0,1-7.93-3.22,11.6,11.6,0,0,1-3.27-8.67V242.62h-4.35v-5.84h4.35V225.93h7.27v10.85h9.09v5.84Z"/>
        <path class="a" d="M223,242.62v17.54a5.68,5.68,0,0,0,1.3,3.93,4.6,4.6,0,0,0,3.63,1.46,6.21,6.21,0,0,0,4.48-2.27l3,5.13a12.41,12.41,0,0,1-8.48,3.44,10.89,10.89,0,0,1-7.92-3.22,11.6,11.6,0,0,1-3.28-8.67V242.62h-4.35v-5.84h4.35V225.93H223v10.85h9.1v5.84Z"/>
        <path class="a" d="M259.65,236.26a16.4,16.4,0,0,1,11.89,4.81q4.93,4.8,4.94,12.79t-4.91,13a15.52,15.52,0,0,1-11.43,5q-6.52,0-11.72-5.71v17.79h-7.28V236.78h7.28v6Q252.71,236.27,259.65,236.26Zm-11.36,17.86a11.25,11.25,0,0,0,3,8.09,9.63,9.63,0,0,0,7.27,3.15,10.32,10.32,0,0,0,7.47-3.12,10.82,10.82,0,0,0,3.18-8.09,11.51,11.51,0,0,0-3.12-8.25,9.94,9.94,0,0,0-7.46-3.28,9.57,9.57,0,0,0-7.34,3.28A11.72,11.72,0,0,0,248.29,254.12Z"/>
        <path class="a" d="M285.6,254.51a4.75,4.75,0,0,1-1.4-3.44,4.78,4.78,0,0,1,4.81-4.81,4.75,4.75,0,0,1,3.44,1.4,4.6,4.6,0,0,1,1.43,3.41,4.88,4.88,0,0,1-4.87,4.87A4.58,4.58,0,0,1,285.6,254.51Zm0,15.91a4.75,4.75,0,0,1-1.4-3.44,4.78,4.78,0,0,1,4.81-4.81,4.75,4.75,0,0,1,3.44,1.4,4.6,4.6,0,0,1,1.43,3.41,4.88,4.88,0,0,1-4.87,4.87A4.58,4.58,0,0,1,285.6,270.42Z"/>
        <path class="a" d="M328.5,218.66H335l-28.13,60.27h-6.49Z"/>
        <path class="a" d="M348.37,218.66h6.5l-28.12,60.27h-6.5Z"/>
      </g>
    </g>
  </g>
</svg>
