<svg xmlns="http://www.w3.org/2000/svg" width="510" height="510" viewBox="0 0 510 510">
  <defs>
    <style>
      .a {
        fill: #a3a7ce;
      }

      .b {
        fill: none;
      }

      .c {
        fill: #4d5cb1;
      }
    </style>
  </defs>
  <title>icon_google_analytics</title>
  <g>
    <g>
      <path class="a" d="M301,200.75H209a9.22,9.22,0,0,0-9.21,9.21V394.12a9.21,9.21,0,0,0,9.21,9.21H301a9.21,9.21,0,0,0,9.21-9.21V210A9.22,9.22,0,0,0,301,200.75Z"/>
      <path class="a" d="M209,292.83H116.87a9.21,9.21,0,0,0-9.2,9.21v92.08a9.2,9.2,0,0,0,9.2,9.21H209a9.21,9.21,0,0,0,9.21-9.21V302A9.22,9.22,0,0,0,209,292.83Z"/>
    </g>
    <rect class="b" width="510" height="510"/>
    <path class="c" d="M393.12,108.67H301a9.21,9.21,0,0,0-9.21,9.2V394.12a9.21,9.21,0,0,0,9.21,9.21h92.08a9.21,9.21,0,0,0,9.21-9.21V117.87A9.2,9.2,0,0,0,393.12,108.67Z"/>
  </g>
</svg>
