<?xml version="1.0" encoding="utf-8"?>
<!-- Generator: Adobe Illustrator 22.0.1, SVG Export Plug-In . SVG Version: 6.00 Build 0)  -->
<!DOCTYPE svg PUBLIC "-//W3C//DTD SVG 1.1//EN" "http://www.w3.org/Graphics/SVG/1.1/DTD/svg11.dtd">
<svg version="1.1" id="レイヤー_1" xmlns="http://www.w3.org/2000/svg" xmlns:xlink="http://www.w3.org/1999/xlink" x="0px"
	 y="0px" viewBox="0 0 626.2 328.7" style="enable-background:new 0 0 626.2 328.7;" xml:space="preserve">
<style type="text/css">
	.st0{fill:#FFFFFF;stroke:#C5CCD4;stroke-miterlimit:10;}
</style>
<title>アセット 3</title>
<g>
	<g>
		<path class="st0" d="M3,320.1h0.2C3.1,319.4,3,318.7,3,318V320.1z"/>
		<path class="st0" d="M625.7,320.1V318c0,0.7-0.1,1.4-0.2,2.1L625.7,320.1z"/>
		<path class="st0" d="M10.4,327.8h603c4.6,0,8.6-3.2,9.6-7.8H0.7C1.7,324.6,5.7,327.8,10.4,327.8z"/>
	</g>
	<path class="st0" d="M2,308.1c-0.8,0-1.5,0.6-1.5,1.4c0,0,0,0,0,0v8.5l0,0c0,0.7,0.1,1.4,0.2,2.1h622.2c0.2-0.7,0.2-1.4,0.2-2.1
		l0,0v-8.5c0-0.8-0.7-1.5-1.5-1.5L2,308.1z"/>
	<path class="st0" d="M565.4,298.6V14.4c0-7.7-6.2-13.9-13.9-13.9H72.1c-7.7,0-13.9,6.2-13.9,13.9v284.3c0,3.5,1.3,6.9,3.7,9.4
		h499.7C564.1,305.5,565.4,302.1,565.4,298.6z"/>
	<path class="st0" d="M561.8,294.6V15c0-5.7-4.6-10.4-10.4-10.4c0,0,0,0,0,0H72.3c-5.7,0-10.4,4.7-10.4,10.4c0,0,0,0,0,0v279.6
		c-0.1,1.3,0.3,2.6,1,3.6c1.4,1.8,3.5,2.8,5.8,2.8H555c2.3,0,4.4-1,5.8-2.8C561.5,297.2,561.9,295.9,561.8,294.6z"/>
	<rect x="75.3" y="22.7" class="st0" width="473" height="266"/>
	<path class="st0" d="M267.5,314h88.7c3.3,0,6-2.7,6-6H261.5C261.5,311.3,264.2,314,267.5,314z"/>
</g>
</svg>
